<svg width="48" height="48" viewBox="0 0 48 48" fill="none" xmlns="http://www.w3.org/2000/svg">
<path fill-rule="evenodd" clip-rule="evenodd" d="M24 46C36.1503 46 46 36.1503 46 24C46 11.8497 36.1503 2 24 2C11.8497 2 2 11.8497 2 24C2 36.1503 11.8497 46 24 46ZM36.3789 39.7098C40.1263 36.7529 42.7902 32.4838 43.6776 27.5958C40.5473 24.6547 35.1082 21.878 29.7947 20.401C26.9726 19.6165 24.2575 19.2195 22.0121 19.3346C20.2096 19.427 18.8293 19.8408 17.905 20.5334C22.4967 27.2863 28.8437 34.5161 36.3789 39.7098ZM34.6427 40.9363C27.3063 35.7364 21.113 28.7204 16.5436 22.0852C13.4013 26.4674 13.2491 30.8355 14.339 34.5844C15.4903 38.5446 18.038 41.8228 19.9918 43.5983C21.2867 43.8617 22.6272 44 24 44C27.9114 44 31.5605 42.8772 34.6427 40.9363ZM16.7983 18.8634C18.1617 17.8813 19.9733 17.4365 21.9097 17.3373C24.4404 17.2075 27.3815 17.6543 30.3303 18.474C35.2849 19.8513 40.4642 22.3407 43.965 25.1937C43.9882 24.7988 44 24.4008 44 24C44 18.5475 41.8181 13.6045 38.2797 9.99676C28.0984 9.8625 20.7351 12.8804 15.5789 16.9141C15.9674 17.5556 16.3741 18.2062 16.7983 18.8634ZM14.0291 18.2139C14.4534 18.9086 14.898 19.6128 15.3623 20.3239C11.3961 25.4509 11.1281 30.704 12.4185 35.1427C13.2437 37.9814 14.7021 40.4829 16.2164 42.4288C11.4314 40.4053 7.59782 36.5727 5.57315 31.7883C6.46319 28.0761 9.03794 22.6986 14.0291 18.2139ZM14.5561 15.1742C19.6218 11.2739 26.6241 8.31973 36.0257 8.01788C32.6787 5.49542 28.514 4 24 4C23.2578 4 22.525 4.04043 21.8038 4.1192C19.6795 8.10372 16.6222 11.14 13.5553 13.3564C13.8702 13.9496 14.204 14.5563 14.5561 15.1742ZM12.9897 16.4622C8.64416 20.2748 5.94304 24.7522 4.5098 28.5066C4.17625 27.0582 4 25.5497 4 24C4 21.8191 4.34908 19.7197 4.99442 17.7546C6.78693 17.1972 9.28025 16.1336 11.8901 14.4828C12.2356 15.1289 12.6024 15.7896 12.9897 16.4622ZM11.2898 8.5574C13.5684 6.67986 16.2696 5.29683 19.2293 4.57251C17.4011 7.47571 15.0301 9.78164 12.6345 11.5518C12.1161 10.4917 11.6667 9.48829 11.2898 8.5574ZM9.72177 9.99528C10.0853 10.849 10.5022 11.7531 10.9701 12.6979C9.18652 13.8411 7.45662 14.6913 5.99877 15.2743C6.95049 13.3145 8.21283 11.5335 9.72177 9.99528Z" fill="#FFFFFF"/>
</svg>
