<svg width="48" height="48" viewBox="0 0 48 48" fill="none" xmlns="http://www.w3.org/2000/svg">
<path fill-rule="evenodd" clip-rule="evenodd" d="M4 12C4 11.4477 4.44772 11 5 11H14C14.5523 11 15 11.4477 15 12V23H20V21C20 20.4477 20.4477 20 21 20H27C27.5523 20 28 20.4477 28 21V23H33V12C33 11.4477 33.4477 11 34 11H43C43.5523 11 44 11.4477 44 12C44 12.5523 43.5523 13 43 13H35V24V35H43C43.5523 35 44 35.4477 44 36C44 36.5523 43.5523 37 43 37H34C33.4477 37 33 36.5523 33 36V25H28V27C28 27.5523 27.5523 28 27 28H21C20.4477 28 20 27.5523 20 27V25H15V36C15 36.5523 14.5523 37 14 37H5C4.44772 37 4 36.5523 4 36C4 35.4477 4.44772 35 5 35H13V24V13H5C4.44772 13 4 12.5523 4 12ZM26 24V22H22V24V26H26V24Z" fill="#FFFFFF"/>
</svg>
