<svg width="24" height="24" viewBox="0 0 24 24" fill="none" xmlns="http://www.w3.org/2000/svg">
<path d="M18.2378 6.13731C17.0905 5.6109 15.8602 5.22306 14.5739 5.00093C14.5505 4.99664 14.5271 5.00736 14.515 5.02879C14.3568 5.3102 14.1815 5.67732 14.0588 5.96588C12.6753 5.75875 11.2989 5.75875 9.94374 5.96588C9.82099 5.67091 9.63936 5.3102 9.48043 5.02879C9.46836 5.00807 9.44496 4.99736 9.42154 5.00093C8.13593 5.22235 6.90567 5.61019 5.7577 6.13731C5.74776 6.14159 5.73924 6.14874 5.73359 6.15802C3.40004 9.64429 2.76079 13.0449 3.07439 16.4033C3.0758 16.4197 3.08503 16.4354 3.0978 16.4454C4.63741 17.5761 6.12878 18.2625 7.59246 18.7175C7.61588 18.7246 7.6407 18.716 7.65561 18.6967C8.00184 18.2239 8.31048 17.7254 8.57511 17.2011C8.59072 17.1704 8.57582 17.134 8.5439 17.1218C8.05435 16.9361 7.5882 16.7097 7.1398 16.4526C7.10433 16.4319 7.10149 16.3811 7.13412 16.3568C7.22848 16.2861 7.32286 16.2126 7.41297 16.1383C7.42927 16.1247 7.45198 16.1219 7.47115 16.1304C10.417 17.4754 13.6062 17.4754 16.5172 16.1304C16.5364 16.1211 16.5591 16.124 16.5761 16.1376C16.6662 16.2119 16.7606 16.2861 16.8557 16.3568C16.8883 16.3811 16.8862 16.4319 16.8507 16.4526C16.4023 16.7147 15.9361 16.9361 15.4459 17.1211C15.414 17.1333 15.3998 17.1704 15.4154 17.2011C15.6857 17.7246 15.9943 18.2232 16.3342 18.696C16.3484 18.716 16.3739 18.7246 16.3973 18.7175C17.8681 18.2625 19.3595 17.5761 20.8991 16.4454C20.9126 16.4354 20.9211 16.4204 20.9225 16.404C21.2978 12.5213 20.2939 9.14861 18.2612 6.15873C18.2562 6.14874 18.2477 6.14159 18.2378 6.13731ZM9.01502 14.3584C8.12812 14.3584 7.39735 13.5441 7.39735 12.5442C7.39735 11.5442 8.11395 10.73 9.01502 10.73C9.92315 10.73 10.6469 11.5514 10.6327 12.5442C10.6327 13.5441 9.91606 14.3584 9.01502 14.3584ZM14.9961 14.3584C14.1092 14.3584 13.3784 13.5441 13.3784 12.5442C13.3784 11.5442 14.095 10.73 14.9961 10.73C15.9042 10.73 16.6279 11.5514 16.6137 12.5442C16.6137 13.5441 15.9042 14.3584 14.9961 14.3584Z" fill="#282828"/>
</svg>
