<svg width="24" height="24" viewBox="0 0 24 24" fill="none" xmlns="http://www.w3.org/2000/svg">
<path d="M20.6478 2.67419L13.1525 8.24105L14.5386 4.95668L20.6478 2.67419Z" fill="#E2761B" stroke="#E2761B" stroke-linecap="round" stroke-linejoin="round"/>
<path d="M3.34462 2.67419L10.7796 8.29378L9.46138 4.95668L3.34462 2.67419Z" fill="#E4761B" stroke="#E4761B" stroke-linecap="round" stroke-linejoin="round"/>
<path d="M17.951 15.5781L15.9548 18.6365L20.226 19.8116L21.4538 15.6459L17.951 15.5781Z" fill="#E4761B" stroke="#E4761B" stroke-linecap="round" stroke-linejoin="round"/>
<path d="M2.55367 15.6459L3.774 19.8116L8.04519 18.6365L6.04896 15.5781L2.55367 15.6459Z" fill="#E4761B" stroke="#E4761B" stroke-linecap="round" stroke-linejoin="round"/>
<path d="M7.80413 10.4105L6.61392 12.2109L10.855 12.3992L10.7043 7.8418L7.80413 10.4105Z" fill="#E4761B" stroke="#E4761B" stroke-linecap="round" stroke-linejoin="round"/>
<path d="M16.1883 10.4105L13.2505 7.78906L13.1525 12.3992L17.386 12.2109L16.1883 10.4105Z" fill="#E4761B" stroke="#E4761B" stroke-linecap="round" stroke-linejoin="round"/>
<path d="M8.0452 18.6365L10.5913 17.3935L8.39171 15.676L8.0452 18.6365Z" fill="#E4761B" stroke="#E4761B" stroke-linecap="round" stroke-linejoin="round"/>
<path d="M13.4011 17.3935L15.9548 18.6365L15.6007 15.676L13.4011 17.3935Z" fill="#E4761B" stroke="#E4761B" stroke-linecap="round" stroke-linejoin="round"/>
<path d="M15.9548 18.6365L13.4011 17.3936L13.6045 19.0583L13.5819 19.7589L15.9548 18.6365Z" fill="#D7C1B3" stroke="#D7C1B3" stroke-linecap="round" stroke-linejoin="round"/>
<path d="M8.0452 18.6365L10.4181 19.7589L10.403 19.0583L10.5913 17.3936L8.0452 18.6365Z" fill="#D7C1B3" stroke="#D7C1B3" stroke-linecap="round" stroke-linejoin="round"/>
<path d="M10.4557 14.5762L8.33145 13.951L9.83051 13.2655L10.4557 14.5762Z" fill="#233447" stroke="#233447" stroke-linecap="round" stroke-linejoin="round"/>
<path d="M13.5367 14.5762L14.162 13.2655L15.6686 13.951L13.5367 14.5762Z" fill="#233447" stroke="#233447" stroke-linecap="round" stroke-linejoin="round"/>
<path d="M8.04521 18.6365L8.40679 15.5781L6.04897 15.6459L8.04521 18.6365Z" fill="#CD6116" stroke="#CD6116" stroke-linecap="round" stroke-linejoin="round"/>
<path d="M15.5932 15.5781L15.9548 18.6365L17.951 15.6459L15.5932 15.5781Z" fill="#CD6116" stroke="#CD6116" stroke-linecap="round" stroke-linejoin="round"/>
<path d="M17.386 12.2109L13.1525 12.3993L13.5443 14.5763L14.1695 13.2656L15.6761 13.951L17.386 12.2109Z" fill="#CD6116" stroke="#CD6116" stroke-linecap="round" stroke-linejoin="round"/>
<path d="M8.33145 13.951L9.83804 13.2656L10.4557 14.5763L10.855 12.3993L6.61394 12.2109L8.33145 13.951Z" fill="#CD6116" stroke="#CD6116" stroke-linecap="round" stroke-linejoin="round"/>
<path d="M6.61394 12.2109L8.39171 15.6761L8.33145 13.951L6.61394 12.2109Z" fill="#E4751F" stroke="#E4751F" stroke-linecap="round" stroke-linejoin="round"/>
<path d="M15.6761 13.951L15.6008 15.6761L17.386 12.2109L15.6761 13.951Z" fill="#E4751F" stroke="#E4751F" stroke-linecap="round" stroke-linejoin="round"/>
<path d="M10.855 12.3993L10.4557 14.5763L10.9529 17.1451L11.0659 13.7628L10.855 12.3993Z" fill="#E4751F" stroke="#E4751F" stroke-linecap="round" stroke-linejoin="round"/>
<path d="M13.1525 12.3993L12.9492 13.7552L13.0396 17.1451L13.5443 14.5763L13.1525 12.3993Z" fill="#E4751F" stroke="#E4751F" stroke-linecap="round" stroke-linejoin="round"/>
<path d="M13.5443 14.5763L13.0396 17.145L13.4011 17.3936L15.6008 15.6761L15.6761 13.951L13.5443 14.5763Z" fill="#F6851B" stroke="#F6851B" stroke-linecap="round" stroke-linejoin="round"/>
<path d="M8.33145 13.951L8.39172 15.6761L10.5913 17.3936L10.9529 17.145L10.4557 14.5763L8.33145 13.951Z" fill="#F6851B" stroke="#F6851B" stroke-linecap="round" stroke-linejoin="round"/>
<path d="M13.5819 19.7589L13.6045 19.0583L13.4162 18.8926H10.5763L10.403 19.0583L10.4181 19.7589L8.0452 18.6365L8.87382 19.3144L10.5537 20.4821H13.4388L15.1262 19.3144L15.9548 18.6365L13.5819 19.7589Z" fill="#C0AD9E" stroke="#C0AD9E" stroke-linecap="round" stroke-linejoin="round"/>
<path d="M13.4011 17.3936L13.0396 17.145H10.9529L10.5913 17.3936L10.403 19.0584L10.5763 18.8927H13.4162L13.6045 19.0584L13.4011 17.3936Z" fill="#161616" stroke="#161616" stroke-linecap="round" stroke-linejoin="round"/>
<path d="M20.9642 8.60263L21.6045 5.52919L20.6478 2.67419L13.4011 8.05273L16.1883 10.4105L20.1281 11.5631L21.0019 10.5461L20.6252 10.2749L21.2279 9.72504L20.7608 9.36346L21.3635 8.90395L20.9642 8.60263Z" fill="#763D16" stroke="#763D16" stroke-linecap="round" stroke-linejoin="round"/>
<path d="M2.39548 5.52919L3.03578 8.60263L2.629 8.90395L3.23164 9.36346L2.77213 9.72504L3.37476 10.2749L2.99811 10.5461L3.86441 11.5631L7.80415 10.4105L10.5913 8.05273L3.34463 2.67419L2.39548 5.52919Z" fill="#763D16" stroke="#763D16" stroke-linecap="round" stroke-linejoin="round"/>
<path d="M20.1281 11.5631L16.1883 10.4105L17.3861 12.2109L15.6008 15.6761L17.951 15.6459H21.4539L20.1281 11.5631Z" fill="#F6851B" stroke="#F6851B" stroke-linecap="round" stroke-linejoin="round"/>
<path d="M7.80414 10.4105L3.8644 11.5631L2.55367 15.6459H6.04896L8.39171 15.6761L6.61393 12.2109L7.80414 10.4105Z" fill="#F6851B" stroke="#F6851B" stroke-linecap="round" stroke-linejoin="round"/>
<path d="M13.1525 12.3992L13.4011 8.05271L14.5461 4.95667H9.46138L10.5913 8.05271L10.855 12.3992L10.9454 13.7702L10.9529 17.145H13.0395L13.0546 13.7702L13.1525 12.3992Z" fill="#F6851B" stroke="#F6851B" stroke-linecap="round" stroke-linejoin="round"/>
</svg>
