<svg width="24" height="24" viewBox="0 0 24 24" fill="none" xmlns="http://www.w3.org/2000/svg">
<path d="M19.0367 8.61398C19.0476 8.77148 19.0476 8.92898 19.0476 9.08793C19.0476 13.9312 15.3605 19.517 8.61847 19.517V19.5141C6.62686 19.517 4.67661 18.9466 3 17.8709C3.2896 17.9058 3.58065 17.9232 3.87242 17.9239C5.5229 17.9254 7.12621 17.3716 8.42468 16.3518C6.85621 16.322 5.48081 15.2994 5.00032 13.8064C5.54976 13.9124 6.11589 13.8906 6.65516 13.7433C4.94516 13.3978 3.71492 11.8954 3.71492 10.1505C3.71492 10.1345 3.71492 10.1193 3.71492 10.1041C4.22444 10.3879 4.79492 10.5454 5.37847 10.5628C3.7679 9.4864 3.27145 7.34382 4.24403 5.66866C6.105 7.95858 8.85073 9.35067 11.7982 9.49801C11.5028 8.22495 11.9064 6.89092 12.8586 5.996C14.3349 4.60825 16.6568 4.67938 18.0445 6.15495C18.8654 5.99309 19.6522 5.69188 20.3722 5.26511C20.0986 6.11358 19.5259 6.8343 18.7609 7.29229C19.4874 7.20664 20.1973 7.01213 20.8657 6.71527C20.3736 7.45269 19.7538 8.09503 19.0367 8.61398Z" fill="#282828"/>
</svg>
