<svg width="22" height="19" viewBox="0 0 22 19" fill="none" xmlns="http://www.w3.org/2000/svg">
<path fill-rule="evenodd" clip-rule="evenodd" d="M7.04128 18.2855C4.53883 18.2855 2.21078 17.5596 0.25 16.3159C0.596807 16.3564 0.949401 16.3767 1.30683 16.3767C3.38266 16.3767 5.29282 15.6758 6.80944 14.4997C4.87 14.464 3.23461 13.1962 2.67056 11.4541C2.94041 11.5053 3.21803 11.5332 3.50342 11.5332C3.90767 11.5332 4.2993 11.4792 4.67133 11.379C2.64431 10.9769 1.11689 9.20407 1.11689 7.08019C1.11689 7.06095 1.11689 7.04266 1.11792 7.02428C1.71505 7.35307 2.39787 7.55072 3.12448 7.57286C1.93514 6.78722 1.15299 5.44427 1.15299 3.923C1.15299 3.11992 1.37213 2.36693 1.75297 1.7191C3.93781 4.37216 7.20298 6.11715 10.885 6.30036C10.8091 5.97926 10.7701 5.64474 10.7701 5.30057C10.7701 2.87978 12.7543 0.916016 15.2012 0.916016C16.4753 0.916016 17.6267 1.44912 18.4351 2.30136C19.4444 2.10474 20.392 1.73936 21.2484 1.23711C20.9172 2.26093 20.2148 3.11992 19.3002 3.66269C20.1963 3.55659 21.0506 3.32133 21.8444 2.97236C21.2512 3.85162 20.4993 4.62384 19.6342 5.24269C19.643 5.43068 19.6469 5.6197 19.6469 5.80957C19.6469 11.6036 15.1905 18.2855 7.04128 18.2855Z" fill="#1DA1F2"/>
</svg>
