<svg width="174" height="48" viewBox="0 0 174 48" fill="none" xmlns="http://www.w3.org/2000/svg">
<path d="M108.21 22.9131C108.97 22.9031 109.66 22.8731 110.35 22.8731C123.57 22.8731 136.79 22.8731 150.02 22.8631C151.06 22.8631 152.13 22.8031 153.13 22.5431C155.17 22.0131 156.4 20.5931 156.82 18.5331C157.26 16.3431 156.1 14.5831 153.9 14.1431C153.11 13.9831 152.28 13.9531 151.47 13.9531C143.61 13.9431 135.74 13.9531 127.88 13.9431C127.24 13.9431 126.61 13.9131 125.94 13.9031C122.6 9.43311 119.29 4.99311 116 0.563108C115.95 0.493108 116 0.353108 116 0.173108C116.54 -0.0868924 117.13 0.0231076 117.69 0.0231076C122.23 0.0231076 126.78 0.0231076 131.32 0.0231076C138.25 0.0231076 145.18 0.0231076 152.11 0.0231076C155.5 0.0231076 158.86 0.273108 162.13 1.26311C165.07 2.15311 167.74 3.51311 169.91 5.74311C172.2 8.09311 173.45 10.9331 173.69 14.1731C174.21 21.2631 171.49 26.8831 165.77 31.0631C162.61 33.3731 159.02 34.6931 155.24 35.5331C152.1 36.2331 148.9 36.4331 145.7 36.4431C138.59 36.4631 131.49 36.4431 124.38 36.4431C123.75 36.4431 123.11 36.4731 122.43 36.4831C122.26 36.9931 122.1 37.4231 121.96 37.8531C120.24 43.1131 116.68 46.3631 111.29 47.5931C110.78 47.7131 110.25 47.7731 109.73 47.7831C108.04 47.8231 106.35 47.8231 104.66 47.8231C104.44 47.8231 104.21 47.7531 104 47.7131C103.99 46.3031 107.31 26.7731 108.22 22.8831L108.21 22.9131Z" fill="#282828"/>
<path d="M0.02 47.7444C2.43 45.3344 4.3 43.0144 6.56 41.0844C11.95 36.4644 18.22 34.1544 25.32 34.1344C37.56 34.1044 49.79 34.1344 62.03 34.1244C62.61 34.1244 63.2 34.1744 63.78 34.0944C64.4 34.0044 65.05 33.8644 65.62 33.6044C66.47 33.2144 66.93 32.4744 67.02 31.5344C67.11 30.4544 66.66 29.7244 65.64 29.3844C65.26 29.2544 64.84 29.2044 64.44 29.1844C63.86 29.1444 63.28 29.1644 62.69 29.1644C54.07 29.1644 45.44 29.1644 36.82 29.1644C34.3 29.1644 31.82 28.8944 29.4 28.1744C27.99 27.7644 26.67 27.1644 25.46 26.3344C23.18 24.7744 21.74 22.6144 21.3 19.9144C20.76 16.5744 21.08 13.2944 22.42 10.1444C23.48 7.66444 25.14 5.68444 27.36 4.16444C29.81 2.49444 32.53 1.53444 35.4 0.914444C38.89 0.154444 42.44 0.0144444 45.99 0.00444444C58.92 -0.00555556 71.86 0.00444444 84.79 0.00444444C87.76 0.00444444 90.73 0.00444444 93.7 0.00444444C94.14 0.00444444 94.58 0.0844445 95.21 0.144444C94.87 0.574444 94.68 0.854445 94.45 1.09444C92.17 3.50444 89.9 5.93444 87.59 8.32444C83.96 12.0644 79.53 13.9344 74.3 13.9244C63.46 13.9144 52.63 13.9244 41.79 13.9244C40.86 13.9244 39.92 13.9944 39.01 14.1644C37.74 14.4044 37.08 15.2444 37.04 16.4744C37 17.4644 37.47 18.1744 38.46 18.3844C39.25 18.5544 40.07 18.6044 40.88 18.6144C49.33 18.6344 57.78 18.6144 66.22 18.6244C68.43 18.6244 70.65 18.6444 72.84 19.0544C74.57 19.3844 76.24 19.8444 77.81 20.6644C81.14 22.3944 82.96 25.1044 83.12 28.8844C83.23 31.2844 83.03 33.6544 82.36 35.9744C81.21 39.9844 78.8 42.9844 75.1 44.9544C72.65 46.2544 70.02 46.9444 67.3 47.3844C65.17 47.7344 63.01 47.8244 60.86 47.8244C41.23 47.8244 21.59 47.8244 1.96 47.8244C1.45 47.8244 0.95 47.7744 0 47.7244L0.02 47.7444Z" fill="#282828"/>
</svg>
