<svg width="82" height="24" viewBox="0 0 82 24" fill="none" xmlns="http://www.w3.org/2000/svg">
<path d="M48.6537 11.5001C49.0351 11.4951 49.3813 11.48 49.7276 11.48C56.3614 11.48 62.9952 11.48 69.6341 11.475C70.156 11.475 70.6929 11.4449 71.1947 11.3144C72.2184 11.0484 72.8356 10.3359 73.0464 9.30217C73.2672 8.20322 72.6851 7.32005 71.5811 7.09926C71.1847 7.01897 70.7682 7.00391 70.3617 7.00391C66.4175 6.9989 62.4684 7.00391 58.5242 6.9989C58.203 6.9989 57.8869 6.98384 57.5507 6.97882C55.8747 4.73576 54.2137 2.50776 52.5628 0.284767C52.5377 0.24964 52.5628 0.179388 52.5628 0.0890633C52.8337 -0.0414056 53.1298 0.0137928 53.4108 0.0137928C55.689 0.0137928 57.9722 0.0137928 60.2504 0.0137928C63.7279 0.0137928 67.2054 0.0137928 70.6829 0.0137928C72.384 0.0137928 74.07 0.139244 75.7109 0.636029C77.1862 1.08263 78.5261 1.76509 79.615 2.88411C80.7641 4.06335 81.3914 5.48847 81.5118 7.11431C81.7727 10.6721 80.4078 13.4922 77.5375 15.5898C75.9518 16.7489 74.1503 17.4113 72.2535 17.8328C70.6779 18.1841 69.0721 18.2845 67.4663 18.2895C63.8985 18.2995 60.3357 18.2895 56.7679 18.2895C56.4517 18.2895 56.1306 18.3045 55.7894 18.3095C55.704 18.5655 55.6238 18.7812 55.5535 18.997C54.6904 21.6365 52.904 23.2674 50.1993 23.8846C49.9433 23.9448 49.6774 23.9749 49.4165 23.9799C48.5684 24 47.7204 24 46.8723 24C46.7619 24 46.6465 23.9649 46.5411 23.9448C46.5361 23.2373 48.2021 13.437 48.6587 11.485L48.6537 11.5001Z" fill="#FDFDFD"/>
<path d="M0.781673 23.9583C1.99102 22.749 2.92939 21.5848 4.06347 20.6163C6.76819 18.298 9.91449 17.1388 13.4773 17.1288C19.6194 17.1137 25.7564 17.1288 31.8985 17.1238C32.1895 17.1238 32.4856 17.1489 32.7767 17.1087C33.0878 17.0635 33.4139 16.9933 33.7 16.8628C34.1265 16.6671 34.3573 16.2958 34.4025 15.8241C34.4477 15.2821 34.2218 14.9158 33.71 14.7452C33.5193 14.68 33.3086 14.6549 33.1078 14.6449C32.8168 14.6248 32.5258 14.6348 32.2297 14.6348C27.9041 14.6348 23.5736 14.6348 19.248 14.6348C17.9835 14.6348 16.739 14.4993 15.5247 14.138C14.8171 13.9323 14.1547 13.6312 13.5476 13.2147C12.4034 12.4319 11.6808 11.348 11.46 9.99313C11.1891 8.31711 11.3497 6.6712 12.0221 5.09052C12.554 3.84604 13.387 2.85247 14.501 2.08973C15.7304 1.25172 17.0953 0.769989 18.5355 0.458871C20.2868 0.0775007 22.0682 0.00724827 23.8496 0.00223024C30.3379 -0.0027878 36.8312 0.00223024 43.3195 0.00223024C44.8099 0.00223024 46.3003 0.00223024 47.7906 0.00223024C48.0114 0.00223024 48.2322 0.0423745 48.5483 0.0724827C48.3777 0.288258 48.2824 0.428763 48.167 0.549196C47.0228 1.75854 45.8838 2.97792 44.7246 4.17723C42.903 6.05398 40.6801 6.99235 38.0556 6.98733C32.6161 6.98231 27.1815 6.98733 21.742 6.98733C21.2753 6.98733 20.8036 7.02246 20.347 7.10777C19.7097 7.2282 19.3785 7.64971 19.3584 8.26693C19.3384 8.76372 19.5742 9.12 20.071 9.22538C20.4674 9.31068 20.8789 9.33577 21.2854 9.34079C25.5256 9.35083 29.7658 9.34079 34.0011 9.34581C35.11 9.34581 36.224 9.35584 37.323 9.56158C38.1911 9.72718 39.0291 9.95801 39.817 10.3695C41.488 11.2376 42.4012 12.5975 42.4815 14.4943C42.5367 15.6986 42.4364 16.8879 42.1002 18.0521C41.5231 20.0643 40.3137 21.5697 38.4571 22.5583C37.2276 23.2106 35.9079 23.5569 34.543 23.7777C33.4742 23.9533 32.3903 23.9985 31.3114 23.9985C21.461 23.9985 11.6056 23.9985 1.75517 23.9985C1.49925 23.9985 1.24835 23.9734 0.771637 23.9483L0.781673 23.9583Z" fill="#FDFDFD"/>
</svg>
