<svg width="61" height="18" viewBox="0 0 61 18" fill="none" xmlns="http://www.w3.org/2000/svg">
<path d="M36.1222 8.62511C36.4082 8.62135 36.6679 8.61006 36.9276 8.61006C41.903 8.61006 46.8784 8.61006 51.8575 8.6063C52.2489 8.6063 52.6516 8.58372 53.028 8.48586C53.7957 8.2864 54.2586 7.75198 54.4167 6.97669C54.5823 6.15248 54.1457 5.4901 53.3177 5.3245C53.0204 5.26429 52.7081 5.253 52.4032 5.253C49.4451 5.24923 46.4832 5.253 43.5251 5.24923C43.2842 5.24923 43.0471 5.23794 42.7949 5.23418C41.5379 3.55188 40.2922 1.88088 39.054 0.213636C39.0352 0.187291 39.054 0.134602 39.054 0.0668585C39.2572 -0.0309932 39.4793 0.0104056 39.69 0.0104056C41.3987 0.0104056 43.1111 0.0104056 44.8197 0.0104056C47.4278 0.0104056 50.036 0.0104056 52.6441 0.0104056C53.9199 0.0104056 55.1845 0.104494 56.4151 0.477083C57.5216 0.812036 58.5265 1.32388 59.3431 2.16314C60.205 3.04757 60.6754 4.11641 60.7658 5.33579C60.9615 8.00413 59.9378 10.1192 57.7851 11.6924C56.5958 12.5618 55.2447 13.0585 53.8221 13.3747C52.6403 13.6381 51.436 13.7134 50.2317 13.7172C47.5558 13.7247 44.8837 13.7172 42.2078 13.7172C41.9707 13.7172 41.7299 13.7285 41.4739 13.7322C41.41 13.9242 41.3497 14.086 41.297 14.2478C40.6497 16.2274 39.3099 17.4506 37.2814 17.9135C37.0894 17.9587 36.89 17.9812 36.6943 17.985C36.0582 18.0001 35.4222 18.0001 34.7862 18.0001C34.7034 18.0001 34.6168 17.9737 34.5378 17.9587C34.534 17.428 35.7835 10.0778 36.126 8.61382L36.1222 8.62511Z" fill="#282828"/>
<path d="M0.218159 17.9687C1.12517 17.0617 1.82895 16.1886 2.6795 15.4622C4.70804 13.7235 7.06777 12.8541 9.73988 12.8466C14.3464 12.8353 18.9492 12.8466 23.5558 12.8428C23.7741 12.8428 23.9961 12.8616 24.2144 12.8315C24.4477 12.7977 24.6924 12.745 24.9069 12.6471C25.2268 12.5003 25.3999 12.2218 25.4338 11.8681C25.4676 11.4616 25.2983 11.1869 24.9144 11.0589C24.7714 11.01 24.6133 10.9912 24.4628 10.9836C24.2445 10.9686 24.0262 10.9761 23.8042 10.9761C20.56 10.9761 17.3121 10.9761 14.0679 10.9761C13.1195 10.9761 12.1862 10.8745 11.2754 10.6035C10.7447 10.4492 10.248 10.2234 9.79257 9.91103C8.93448 9.32392 8.39254 8.511 8.22694 7.49485C8.02371 6.23783 8.14414 5.0034 8.64846 3.81789C9.04739 2.88453 9.67213 2.13935 10.5076 1.5673C11.4297 0.93879 12.4534 0.577492 13.5335 0.344153C14.847 0.0581256 16.183 0.0054362 17.5191 0.00167268C22.3853 -0.00209085 27.2553 0.00167268 32.1216 0.00167268C33.2393 0.00167268 34.3571 0.00167268 35.4749 0.00167268C35.6405 0.00167268 35.806 0.0317809 36.0432 0.054362C35.9152 0.216194 35.8437 0.321572 35.7571 0.411897C34.899 1.31891 34.0447 2.23344 33.1753 3.13293C31.8092 4.54048 30.1419 5.24426 28.1736 5.2405C24.094 5.23674 20.0181 5.2405 15.9384 5.2405C15.5884 5.2405 15.2346 5.26684 14.8921 5.33082C14.4142 5.42115 14.1658 5.73728 14.1507 6.2002C14.1357 6.57279 14.3126 6.84 14.6851 6.91903C14.9825 6.98301 15.2911 7.00183 15.5959 7.00559C18.7761 7.01312 21.9563 7.00559 25.1327 7.00936C25.9644 7.00936 26.7999 7.01688 27.6241 7.17119C28.2752 7.29538 28.9037 7.46851 29.4946 7.77711C30.7479 8.4282 31.4328 9.44812 31.493 10.8707C31.5344 11.774 31.4592 12.6659 31.207 13.5391C30.7742 15.0482 29.8672 16.1773 28.4747 16.9187C27.5526 17.408 26.5628 17.6677 25.5392 17.8333C24.7375 17.965 23.9246 17.9988 23.1154 17.9988C15.7276 17.9988 8.33608 17.9988 0.948283 17.9988C0.756343 17.9988 0.568167 17.98 0.210632 17.9612L0.218159 17.9687Z" fill="#282828"/>
</svg>
