<svg width="32" height="9" viewBox="0 0 32 9" fill="none" xmlns="http://www.w3.org/2000/svg">
<path d="M18.7274 4.31256C18.8704 4.31068 19.0003 4.30503 19.1301 4.30503C21.6178 4.30503 24.1055 4.30503 26.5951 4.30315C26.7908 4.30315 26.9921 4.29186 27.1803 4.24293C27.5642 4.1432 27.7956 3.87599 27.8747 3.48835C27.9575 3.07624 27.7392 2.74505 27.3252 2.66225C27.1765 2.63214 27.0203 2.6265 26.8679 2.6265C25.3888 2.62462 23.9079 2.6265 22.4288 2.62462C22.3084 2.62462 22.1898 2.61897 22.0638 2.61709C21.4353 1.77594 20.8124 0.940439 20.1933 0.106818C20.1839 0.0936456 20.1933 0.067301 20.1933 0.0334292C20.2949 -0.0154966 20.4059 0.0052028 20.5113 0.0052028C21.3656 0.0052028 22.2218 0.0052028 23.0762 0.0052028C24.3802 0.0052028 25.6843 0.0052028 26.9883 0.0052028C27.6263 0.0052028 28.2585 0.0522469 28.8739 0.238541C29.4271 0.406018 29.9295 0.661938 30.3379 1.08157C30.7688 1.52378 31.004 2.05821 31.0492 2.6679C31.147 4.00207 30.6352 5.05962 29.5588 5.84619C28.9642 6.28088 28.2886 6.52927 27.5773 6.68734C26.9865 6.81906 26.3843 6.8567 25.7821 6.85858C24.4442 6.86235 23.1081 6.85858 21.7702 6.85858C21.6517 6.85858 21.5312 6.86423 21.4033 6.86611C21.3713 6.96208 21.3412 7.04299 21.3148 7.12391C20.9912 8.11372 20.3213 8.72529 19.307 8.95675C19.211 8.97933 19.1113 8.99062 19.0134 8.9925C18.6954 9.00003 18.3774 9.00003 18.0594 9.00003C18.018 9.00003 17.9747 8.98686 17.9352 8.97933C17.9333 8.714 18.558 5.03892 18.7293 4.30691L18.7274 4.31256Z" fill="#282828"/>
<path d="M0.7754 8.98437C1.22891 8.53087 1.58079 8.0943 2.00607 7.73112C3.02034 6.86174 4.20021 6.42706 5.53626 6.42329C7.83954 6.41765 10.1409 6.42329 12.4442 6.42141C12.5534 6.42141 12.6644 6.43082 12.7735 6.41576C12.8902 6.39883 13.0125 6.37248 13.1198 6.32356C13.2797 6.25017 13.3663 6.11092 13.3832 5.93403C13.4001 5.7308 13.3155 5.59343 13.1235 5.52945C13.052 5.50499 12.973 5.49558 12.8977 5.49182C12.7886 5.48429 12.6794 5.48806 12.5684 5.48806C10.9463 5.48806 9.32237 5.48806 7.70029 5.48806C7.22608 5.48806 6.75941 5.43725 6.30402 5.30176C6.03869 5.22461 5.7903 5.1117 5.5626 4.95552C5.13356 4.66196 4.86259 4.2555 4.77979 3.74743C4.67818 3.11892 4.73839 2.5017 4.99055 1.90894C5.19002 1.44227 5.50239 1.06968 5.92014 0.78365C6.38117 0.469395 6.89301 0.288746 7.43308 0.172077C8.08981 0.0290628 8.75784 0.0027181 9.42586 0.000836339C11.859 -0.00104542 14.294 0.000836339 16.7271 0.000836339C17.286 0.000836339 17.8449 0.000836339 18.4038 0.000836339C18.4865 0.000836339 18.5693 0.0158904 18.6879 0.027181C18.6239 0.108097 18.5882 0.160786 18.5449 0.205948C18.1158 0.659453 17.6887 1.11672 17.254 1.56646C16.5709 2.27024 15.7373 2.62213 14.7531 2.62025C12.7133 2.61837 10.6754 2.62025 8.63552 2.62025C8.46052 2.62025 8.28363 2.63342 8.11239 2.66541C7.87341 2.71057 7.74921 2.86864 7.74169 3.1001C7.73416 3.28639 7.8226 3.42 8.0089 3.45952C8.15756 3.49151 8.31186 3.50091 8.46428 3.5028C10.0544 3.50656 11.6445 3.5028 13.2327 3.50468C13.6485 3.50468 14.0663 3.50844 14.4784 3.58559C14.8039 3.64769 15.1182 3.73425 15.4136 3.88856C16.0403 4.2141 16.3827 4.72406 16.4128 5.43537C16.4335 5.88699 16.3959 6.33297 16.2698 6.76954C16.0534 7.52412 15.5999 8.08865 14.9037 8.45936C14.4426 8.70399 13.9477 8.83383 13.4359 8.91663C13.0351 8.98249 12.6286 8.99942 12.224 8.99942C8.53014 8.99942 4.83436 8.99942 1.14046 8.99942C1.04449 8.99942 0.950404 8.99002 0.771637 8.98061L0.7754 8.98437Z" fill="#282828"/>
</svg>
