<svg width="31" height="9" viewBox="0 0 31 9" fill="none" xmlns="http://www.w3.org/2000/svg">
<path d="M18.0168 4.31256C18.1598 4.31068 18.2896 4.30503 18.4195 4.30503C20.9072 4.30503 23.3949 4.30503 25.8844 4.30315C26.0801 4.30315 26.2815 4.29186 26.4697 4.24293C26.8535 4.1432 27.085 3.87599 27.164 3.48835C27.2468 3.07624 27.0285 2.74505 26.6145 2.66225C26.4659 2.63214 26.3097 2.6265 26.1573 2.6265C24.6782 2.62462 23.1973 2.6265 21.7182 2.62462C21.5978 2.62462 21.4792 2.61897 21.3531 2.61709C20.7246 1.77594 20.1018 0.940439 19.4827 0.106818C19.4733 0.0936456 19.4827 0.067301 19.4827 0.0334292C19.5843 -0.0154966 19.6953 0.0052028 19.8007 0.0052028C20.655 0.0052028 21.5112 0.0052028 22.3655 0.0052028C23.6696 0.0052028 24.9736 0.0052028 26.2777 0.0052028C26.9156 0.0052028 27.5479 0.0522469 28.1632 0.238541C28.7165 0.406018 29.2189 0.661938 29.6272 1.08157C30.0582 1.52379 30.2934 2.05821 30.3386 2.6679C30.4364 4.00207 29.9246 5.05962 28.8482 5.84619C28.2536 6.28088 27.578 6.52927 26.8667 6.68734C26.2758 6.81906 25.6737 6.8567 25.0715 6.85858C23.7336 6.86235 22.3975 6.85858 21.0596 6.85858C20.941 6.85858 20.8206 6.86423 20.6926 6.86611C20.6607 6.96208 20.6305 7.04299 20.6042 7.12391C20.2805 8.11372 19.6106 8.72529 18.5964 8.95675C18.5004 8.97933 18.4007 8.99062 18.3028 8.9925C17.9848 9.00003 17.6668 9.00003 17.3487 9.00003C17.3074 9.00003 17.2641 8.98686 17.2246 8.97933C17.2227 8.714 17.8474 5.03892 18.0187 4.30691L18.0168 4.31256Z" fill="#FDFDFD"/>
<path d="M0.0647682 8.98437C0.518273 8.53087 0.870163 8.0943 1.29544 7.73112C2.30971 6.86174 3.48958 6.42706 4.82563 6.42329C7.1289 6.41765 9.4303 6.42329 11.7336 6.42141C11.8427 6.42141 11.9537 6.43082 12.0629 6.41576C12.1796 6.39883 12.3019 6.37248 12.4091 6.32356C12.5691 6.25017 12.6556 6.11092 12.6726 5.93403C12.6895 5.7308 12.6048 5.59343 12.4129 5.52945C12.3414 5.50499 12.2624 5.49558 12.1871 5.49182C12.0779 5.48429 11.9688 5.48806 11.8578 5.48806C10.2357 5.48806 8.61173 5.48806 6.98965 5.48806C6.51545 5.48806 6.04877 5.43725 5.59339 5.30176C5.32806 5.22461 5.07967 5.1117 4.85197 4.95552C4.42293 4.66196 4.15196 4.2555 4.06916 3.74743C3.96754 3.11892 4.02776 2.5017 4.27992 1.90894C4.47938 1.44227 4.79176 1.06968 5.20951 0.78365C5.67054 0.469395 6.18238 0.288746 6.72244 0.172077C7.37918 0.0290628 8.04721 0.0027181 8.71523 0.000836339C11.1484 -0.00104542 13.5833 0.000836339 16.0165 0.000836339C16.5754 0.000836339 17.1342 0.000836339 17.6931 0.000836339C17.7759 0.000836339 17.8587 0.0158904 17.9773 0.027181C17.9133 0.108097 17.8775 0.160786 17.8343 0.205948C17.4052 0.659453 16.978 1.11672 16.5434 1.56646C15.8603 2.27024 15.0267 2.62213 14.0425 2.62025C12.0027 2.61837 9.96472 2.62025 7.92489 2.62025C7.74989 2.62025 7.573 2.63342 7.40176 2.66541C7.16278 2.71057 7.03858 2.86864 7.03105 3.1001C7.02353 3.28639 7.11197 3.42 7.29826 3.45952C7.44692 3.49151 7.60123 3.50091 7.75365 3.5028C9.34374 3.50656 10.9338 3.5028 12.522 3.50468C12.9379 3.50468 13.3557 3.50844 13.7678 3.58559C14.0933 3.64769 14.4076 3.73425 14.703 3.88856C15.3296 4.2141 15.6721 4.72406 15.7022 5.43537C15.7229 5.88699 15.6853 6.33297 15.5592 6.76954C15.3428 7.52412 14.8893 8.08865 14.193 8.45936C13.732 8.70399 13.2371 8.83383 12.7253 8.91663C12.3245 8.98249 11.918 8.99942 11.5134 8.99942C7.81951 8.99942 4.12373 8.99942 0.42983 8.99942C0.33386 8.99942 0.239772 8.99002 0.0610046 8.98061L0.0647682 8.98437Z" fill="#FDFDFD"/>
</svg>
