<svg width="21" height="6" viewBox="0 0 21 6" fill="none" xmlns="http://www.w3.org/2000/svg">
<path d="M12.2854 2.87508C12.3808 2.87382 12.4673 2.87006 12.5539 2.87006C14.2124 2.87006 15.8708 2.87006 17.5305 2.86881C17.661 2.86881 17.7952 2.86128 17.9207 2.82866C18.1766 2.76217 18.3309 2.58403 18.3836 2.3256C18.4388 2.05087 18.2933 1.83007 18.0173 1.77488C17.9182 1.7548 17.814 1.75104 17.7124 1.75104C16.7264 1.74978 15.7391 1.75104 14.753 1.74978C14.6728 1.74978 14.5937 1.74602 14.5097 1.74477C14.0907 1.184 13.6754 0.627 13.2627 0.0712527C13.2564 0.0624711 13.2627 0.044908 13.2627 0.0223268C13.3304 -0.0102904 13.4045 0.00350922 13.4747 0.00350922C14.0442 0.00350922 14.6151 0.00350922 15.1846 0.00350922C16.054 0.00350922 16.9233 0.00350922 17.7927 0.00350922C18.218 0.00350922 18.6395 0.0348719 19.0497 0.159068C19.4186 0.27072 19.7535 0.441333 20.0257 0.721088C20.313 1.0159 20.4698 1.37218 20.4999 1.77864C20.5652 2.66809 20.224 3.37312 19.5064 3.8975C19.11 4.18729 18.6596 4.35289 18.1854 4.45827C17.7915 4.54608 17.39 4.57117 16.9886 4.57243C16.0966 4.57494 15.2059 4.57243 14.314 4.57243C14.2349 4.57243 14.1546 4.57619 14.0693 4.57745C14.048 4.64143 14.0279 4.69537 14.0104 4.74931C13.7946 5.40919 13.348 5.8169 12.6718 5.97121C12.6078 5.98626 12.5413 5.99379 12.4761 5.99504C12.2641 6.00006 12.0521 6.00006 11.8401 6.00006C11.8125 6.00006 11.7836 5.99128 11.7573 5.98626C11.756 5.80937 12.1725 3.35932 12.2867 2.87132L12.2854 2.87508Z" fill="#FDFDFD"/>
<path d="M0.31742 5.98958C0.619756 5.68724 0.85435 5.3962 1.13787 5.15408C1.81405 4.5745 2.60063 4.2847 3.49133 4.28219C5.02684 4.27843 6.56111 4.28219 8.09663 4.28094C8.16939 4.28094 8.2434 4.28721 8.31617 4.27718C8.39395 4.26589 8.47549 4.24832 8.547 4.21571C8.65363 4.16678 8.71134 4.07395 8.72263 3.95602C8.73392 3.82054 8.67746 3.72896 8.5495 3.6863C8.50183 3.66999 8.44914 3.66372 8.39896 3.66121C8.3262 3.65619 8.25344 3.6587 8.17942 3.6587C7.09804 3.6587 6.0154 3.6587 4.93401 3.6587C4.61787 3.6587 4.30676 3.62483 4.00317 3.53451C3.82628 3.48307 3.66069 3.4078 3.50889 3.30368C3.22286 3.10797 3.04221 2.837 2.98701 2.49828C2.91927 2.07928 2.95941 1.6678 3.12752 1.27263C3.2605 0.961511 3.46875 0.713118 3.74725 0.522433C4.0546 0.31293 4.39583 0.192497 4.75587 0.114718C5.19369 0.0193752 5.63905 0.00181207 6.0844 0.000557559C7.70648 -0.000696949 9.32981 0.000557559 10.9519 0.000557559C11.3245 0.000557559 11.6971 0.000557559 12.0697 0.000557559C12.1249 0.000557559 12.1801 0.0105936 12.2591 0.0181207C12.2164 0.0720645 12.1926 0.107191 12.1637 0.137299C11.8777 0.439635 11.5929 0.744481 11.3032 1.04431C10.8478 1.51349 10.292 1.74809 9.63591 1.74683C8.27602 1.74558 6.91739 1.74683 5.5575 1.74683C5.44083 1.74683 5.32291 1.75561 5.20875 1.77694C5.04943 1.80705 4.96663 1.91243 4.96161 2.06673C4.95659 2.19093 5.01555 2.28 5.13975 2.30634C5.23886 2.32767 5.34173 2.33394 5.44334 2.3352C6.5034 2.33771 7.56346 2.3352 8.62227 2.33645C8.89951 2.33645 9.17801 2.33896 9.45275 2.3904C9.66978 2.43179 9.87928 2.4895 10.0762 2.59237C10.494 2.8094 10.7223 3.14937 10.7424 3.62358C10.7562 3.92466 10.7311 4.22198 10.647 4.51302C10.5028 5.01608 10.2004 5.39243 9.73627 5.63957C9.42891 5.80266 9.09898 5.88922 8.75775 5.94442C8.49054 5.98833 8.21957 5.99962 7.94985 5.99962C5.48725 5.99962 3.02339 5.99962 0.560795 5.99962C0.496815 5.99962 0.434089 5.99334 0.314911 5.98707L0.31742 5.98958Z" fill="#FDFDFD"/>
</svg>
