<svg width="21" height="6" viewBox="0 0 21 6" fill="none" xmlns="http://www.w3.org/2000/svg">
<path d="M12.7776 2.87508C12.873 2.87382 12.9595 2.87006 13.0461 2.87006C14.7046 2.87006 16.363 2.87006 18.0227 2.86881C18.1532 2.86881 18.2874 2.86128 18.4129 2.82866C18.6688 2.76217 18.8231 2.58403 18.8758 2.3256C18.931 2.05087 18.7855 1.83007 18.5095 1.77488C18.4104 1.7548 18.3063 1.75104 18.2046 1.75104C17.2186 1.74978 16.2313 1.75104 15.2452 1.74978C15.165 1.74978 15.0859 1.74602 15.0019 1.74477C14.5829 1.184 14.1676 0.627 13.7549 0.0712527C13.7486 0.0624711 13.7549 0.044908 13.7549 0.0223268C13.8226 -0.0102904 13.8967 0.00350922 13.9669 0.00350922C14.5365 0.00350922 15.1073 0.00350922 15.6768 0.00350922C16.5462 0.00350922 17.4155 0.00350922 18.2849 0.00350922C18.7102 0.00350922 19.1317 0.0348719 19.5419 0.159068C19.9108 0.270719 20.2457 0.441333 20.5179 0.721088C20.8052 1.0159 20.962 1.37218 20.9922 1.77864C21.0574 2.66809 20.7162 3.37312 19.9986 3.8975C19.6022 4.18729 19.1518 4.35289 18.6776 4.45827C18.2837 4.54608 17.8822 4.57117 17.4808 4.57243C16.5888 4.57494 15.6981 4.57243 14.8062 4.57243C14.7271 4.57243 14.6468 4.57619 14.5615 4.57745C14.5402 4.64143 14.5201 4.69537 14.5026 4.74931C14.2868 5.40919 13.8402 5.8169 13.164 5.97121C13.1 5.98626 13.0336 5.99379 12.9683 5.99504C12.7563 6.00006 12.5443 6.00006 12.3323 6.00006C12.3047 6.00006 12.2758 5.99128 12.2495 5.98626C12.2482 5.80937 12.6647 3.35932 12.7789 2.87132L12.7776 2.87508Z" fill="#4E4E4E"/>
<path d="M0.809607 5.98958C1.11194 5.68724 1.34654 5.3962 1.63006 5.15408C2.30624 4.5745 3.09281 4.2847 3.98351 4.28219C5.51903 4.27843 7.0533 4.28219 8.58881 4.28094C8.66158 4.28094 8.73559 4.28721 8.80835 4.27718C8.88613 4.26589 8.96768 4.24832 9.03918 4.21571C9.14582 4.16678 9.20352 4.07395 9.21481 3.95602C9.2261 3.82054 9.16965 3.72896 9.04169 3.6863C8.99402 3.66999 8.94133 3.66372 8.89115 3.66121C8.81839 3.65619 8.74563 3.6587 8.67161 3.6587C7.59023 3.6587 6.50759 3.6587 5.4262 3.6587C5.11006 3.6587 4.79894 3.62483 4.49535 3.53451C4.31847 3.48307 4.15287 3.4078 4.00108 3.30368C3.71505 3.10797 3.5344 2.837 3.4792 2.49828C3.41146 2.07928 3.4516 1.6678 3.61971 1.27263C3.75268 0.961511 3.96093 0.713118 4.23943 0.522433C4.54679 0.31293 4.88801 0.192497 5.24806 0.114718C5.68588 0.0193752 6.13123 0.00181207 6.57658 0.000557559C8.19866 -0.000696949 9.822 0.000557559 11.4441 0.000557559C11.8167 0.000557559 12.1893 0.000557559 12.5618 0.000557559C12.617 0.000557559 12.6722 0.0105936 12.7513 0.0181207C12.7086 0.0720645 12.6848 0.107191 12.6559 0.137299C12.3699 0.439635 12.0851 0.744481 11.7953 1.04431C11.34 1.51349 10.7842 1.74809 10.1281 1.74683C8.76821 1.74558 7.40958 1.74683 6.04969 1.74683C5.93302 1.74683 5.8151 1.75561 5.70094 1.77694C5.54161 1.80705 5.45882 1.91243 5.4538 2.06673C5.44878 2.19093 5.50774 2.28 5.63194 2.30634C5.73104 2.32767 5.83391 2.33394 5.93553 2.3352C6.99559 2.33771 8.05565 2.3352 9.11445 2.33645C9.3917 2.33645 9.6702 2.33896 9.94494 2.3904C10.162 2.43179 10.3715 2.4895 10.5684 2.59237C10.9862 2.8094 11.2145 3.14937 11.2346 3.62358C11.2484 3.92466 11.2233 4.22198 11.1392 4.51302C10.995 5.01608 10.6926 5.39243 10.2285 5.63957C9.9211 5.80266 9.59117 5.88922 9.24994 5.94442C8.98273 5.98833 8.71176 5.99962 8.44204 5.99962C5.97944 5.99962 3.51558 5.99962 1.05298 5.99962C0.989002 5.99962 0.926277 5.99334 0.807098 5.98707L0.809607 5.98958Z" fill="#4E4E4E"/>
</svg>
