<svg width="21" height="6" viewBox="0 0 21 6" fill="none" xmlns="http://www.w3.org/2000/svg">
<path d="M12.0315 2.87508C12.1269 2.87382 12.2134 2.87006 12.3 2.87006C13.9585 2.87006 15.6169 2.87006 17.2766 2.86881C17.4071 2.86881 17.5413 2.86128 17.6668 2.82866C17.9227 2.76217 18.077 2.58403 18.1297 2.3256C18.1849 2.05087 18.0394 1.83007 17.7634 1.77488C17.6643 1.7548 17.5602 1.75104 17.4585 1.75104C16.4725 1.74978 15.4852 1.75104 14.4992 1.74978C14.4189 1.74978 14.3398 1.74602 14.2558 1.74477C13.8368 1.184 13.4215 0.627 13.0088 0.0712527C13.0025 0.0624711 13.0088 0.044908 13.0088 0.0223268C13.0765 -0.0102904 13.1506 0.00350922 13.2208 0.00350922C13.7904 0.00350922 14.3612 0.00350922 14.9307 0.00350922C15.8001 0.00350922 16.6695 0.00350922 17.5388 0.00350922C17.9641 0.00350922 18.3856 0.0348719 18.7958 0.159068C19.1647 0.270719 19.4996 0.441333 19.7719 0.721088C20.0591 1.0159 20.216 1.37218 20.2461 1.77864C20.3113 2.66809 19.9701 3.37312 19.2525 3.8975C18.8561 4.18729 18.4057 4.35289 17.9315 4.45827C17.5376 4.54608 17.1361 4.57117 16.7347 4.57243C15.8427 4.57494 14.952 4.57243 14.0601 4.57243C13.981 4.57243 13.9008 4.57619 13.8154 4.57745C13.7941 4.64143 13.7741 4.69537 13.7565 4.74931C13.5407 5.40919 13.0941 5.8169 12.4179 5.97121C12.3539 5.98626 12.2875 5.99379 12.2222 5.99504C12.0102 6.00006 11.7982 6.00006 11.5862 6.00006C11.5586 6.00006 11.5297 5.99128 11.5034 5.98626C11.5021 5.80937 11.9186 3.35932 12.0328 2.87132L12.0315 2.87508Z" fill="#282828"/>
<path d="M0.0635137 5.98958C0.36585 5.68724 0.600443 5.3962 0.883962 5.15408C1.56014 4.5745 2.34672 4.2847 3.23742 4.28219C4.77294 4.27843 6.3072 4.28219 7.84272 4.28094C7.91548 4.28094 7.9895 4.28721 8.06226 4.27718C8.14004 4.26589 8.22158 4.24832 8.29309 4.21571C8.39972 4.16678 8.45743 4.07395 8.46872 3.95602C8.48001 3.82054 8.42356 3.72896 8.2956 3.6863C8.24793 3.66999 8.19524 3.66372 8.14506 3.66121C8.0723 3.65619 7.99953 3.6587 7.92552 3.6587C6.84413 3.6587 5.76149 3.6587 4.6801 3.6587C4.36397 3.6587 4.05285 3.62483 3.74926 3.53451C3.57237 3.48307 3.40678 3.4078 3.25498 3.30368C2.96896 3.10797 2.78831 2.837 2.73311 2.49828C2.66536 2.07928 2.70551 1.6678 2.87361 1.27263C3.00659 0.961511 3.21484 0.713118 3.49334 0.522433C3.80069 0.31293 4.14192 0.192497 4.50197 0.114718C4.93979 0.0193752 5.38514 0.00181207 5.83049 0.000557559C7.45257 -0.000696949 9.0759 0.000557559 10.698 0.000557559C11.0706 0.000557559 11.4432 0.000557559 11.8157 0.000557559C11.8709 0.000557559 11.9261 0.0105936 12.0052 0.0181207C11.9625 0.0720645 11.9387 0.107191 11.9098 0.137299C11.6238 0.439635 11.339 0.744481 11.0492 1.04431C10.5939 1.51349 10.0381 1.74809 9.382 1.74683C8.02211 1.74558 6.66348 1.74683 5.3036 1.74683C5.18693 1.74683 5.069 1.75561 4.95484 1.77694C4.79552 1.80705 4.71272 1.91243 4.7077 2.06673C4.70269 2.19093 4.76165 2.28 4.88584 2.30634C4.98495 2.32767 5.08782 2.33394 5.18944 2.3352C6.2495 2.33771 7.30955 2.3352 8.36836 2.33645C8.64561 2.33645 8.92411 2.33896 9.19884 2.3904C9.41587 2.43179 9.62538 2.4895 9.82234 2.59237C10.2401 2.8094 10.4684 3.14937 10.4885 3.62358C10.5023 3.92466 10.4772 4.22198 10.3931 4.51302C10.2489 5.01608 9.94653 5.39243 9.48236 5.63957C9.17501 5.80266 8.84507 5.88922 8.50385 5.94442C8.23664 5.98833 7.96566 5.99962 7.69594 5.99962C5.23334 5.99962 2.76949 5.99962 0.306888 5.99962C0.242908 5.99962 0.180183 5.99334 0.0610046 5.98707L0.0635137 5.98958Z" fill="#282828"/>
</svg>
