<svg width="38" height="38" viewBox="0 0 38 38" fill="none" xmlns="http://www.w3.org/2000/svg">
<rect width="38" height="38" rx="4" fill="#13FF0D"/>
<path d="M6 30H32V33C32 33.5523 31.5523 34 31 34H7C6.44772 34 6 33.5523 6 33V30Z" fill="#FDFDFD" stroke="#4E4E4E" stroke-width="2"/>
<path d="M21.4907 8.86545L21.0389 7.97332L21.4907 8.86545C22.7228 8.24151 23.6722 7.16576 24.1352 5.86267L24.7969 4H28.0893L27.5037 8.20142C27.3834 9.06454 27.3925 9.94079 27.5309 10.8012L27.6954 11.8237C28.0468 14.0088 28.8576 16.0946 30.0741 17.9435L31.9626 20.8137C31.987 20.8507 32 20.8941 32 20.9385V30H6V20.9385C6 20.8941 6.013 20.8507 6.03739 20.8137L7.9259 17.9435C9.14243 16.0946 9.95316 14.0088 10.3046 11.8237L10.4691 10.8012C10.6075 9.94079 10.6166 9.06454 10.4963 8.20142L9.91068 4H13.2358L14.0876 6.09802C14.5578 7.25602 15.4173 8.21368 16.5179 8.80585C18.0653 9.63844 19.9252 9.65821 21.4907 8.86545ZM24.9353 3.61049C24.9351 3.61082 24.935 3.61114 24.9349 3.61147L24.9353 3.61049L24.3835 3.41449L24.9353 3.61049Z" fill="#FDFDFD" stroke="#4E4E4E" stroke-width="2"/>
<path d="M15.0017 17.0117C15.2042 16.8092 15.3613 16.6143 15.5512 16.4521C16.0041 16.0639 16.5309 15.8698 17.1275 15.8681C18.156 15.8656 19.1836 15.8681 20.2121 15.8673C20.2608 15.8673 20.3104 15.8715 20.3591 15.8648C20.4112 15.8572 20.4658 15.8455 20.5137 15.8236C20.5851 15.7908 20.6238 15.7287 20.6313 15.6497C20.6389 15.5589 20.6011 15.4976 20.5154 15.469C20.4835 15.4581 20.4482 15.4539 20.4146 15.4522C20.3658 15.4489 20.3171 15.4505 20.2675 15.4505C19.5432 15.4505 18.8181 15.4505 18.0938 15.4505C17.8821 15.4505 17.6737 15.4278 17.4703 15.3674C17.3519 15.3329 17.2409 15.2825 17.1393 15.2127C16.9477 15.0817 16.8267 14.9002 16.7897 14.6733C16.7444 14.3927 16.7712 14.1171 16.8838 13.8524C16.9729 13.644 17.1124 13.4776 17.2989 13.3499C17.5048 13.2096 17.7333 13.1289 17.9745 13.0768C18.2677 13.013 18.566 13.0012 18.8643 13.0004C19.9507 12.9995 21.038 13.0004 22.1245 13.0004C22.374 13.0004 22.6236 13.0004 22.8731 13.0004C22.9101 13.0004 22.9471 13.0071 23 13.0121C22.9714 13.0483 22.9555 13.0718 22.9361 13.092C22.7446 13.2945 22.5538 13.4986 22.3597 13.6995C22.0547 14.0137 21.6825 14.1708 21.243 14.17C20.3322 14.1692 19.4222 14.17 18.5114 14.17C18.4333 14.17 18.3543 14.1759 18.2778 14.1902C18.1711 14.2103 18.1156 14.2809 18.1123 14.3843C18.1089 14.4674 18.1484 14.5271 18.2316 14.5447C18.298 14.559 18.3669 14.5632 18.4349 14.5641C19.1449 14.5658 19.855 14.5641 20.5641 14.5649C20.7498 14.5649 20.9364 14.5666 21.1204 14.601C21.2657 14.6288 21.406 14.6674 21.538 14.7363C21.8178 14.8817 21.9707 15.1094 21.9841 15.427C21.9934 15.6287 21.9766 15.8278 21.9203 16.0227C21.8237 16.3597 21.6212 16.6118 21.3103 16.7773C21.1044 16.8865 20.8834 16.9445 20.6549 16.9815C20.4759 17.0109 20.2944 17.0184 20.1137 17.0184C18.4643 17.0184 16.8141 17.0184 15.1647 17.0184C15.1218 17.0184 15.0798 17.0142 15 17.01L15.0017 17.0117Z" fill="#282828"/>
</svg>
